<svg xmlns="http://www.w3.org/2000/svg" xmlns:xlink="http://www.w3.org/1999/xlink" width="500" zoomAndPan="magnify" viewBox="0 0 375 374.999991" height="500" preserveAspectRatio="xMidYMid meet" version="1.0"><defs><g/><clipPath id="id1"><path d="M 91.242188 91.242188 L 283.992188 91.242188 L 283.992188 283.992188 L 91.242188 283.992188 Z M 91.242188 91.242188 " clip-rule="nonzero"/></clipPath></defs><path fill="#c69c6d" d="M 218.710938 205.464844 C 201.101562 205.464844 192.21875 195.234375 192.21875 175.085938 C 192.21875 156.285156 201.417969 130.269531 218.710938 130.269531 C 226.5625 130.269531 233.703125 135.742188 238.621094 145.734375 C 242.746094 153.984375 245.203125 164.933594 245.203125 175.085938 C 245.203125 195.234375 236.320312 205.464844 218.710938 205.464844 Z M 218.710938 135.820312 C 206.734375 135.820312 197.769531 156.523438 197.769531 175.085938 C 197.769531 192.296875 204.195312 199.914062 218.710938 199.914062 C 233.226562 199.914062 239.652344 192.21875 239.652344 175.085938 C 239.652344 156.445312 231.085938 135.820312 218.710938 135.820312 Z M 218.710938 135.820312 " fill-opacity="1" fill-rule="nonzero"/><path fill="#c69c6d" d="M 180.320312 176.671875 L 133.917969 176.671875 C 132.410156 176.671875 131.140625 175.402344 131.140625 173.894531 C 131.140625 172.386719 132.410156 171.117188 133.917969 171.117188 L 180.320312 171.117188 C 181.828125 171.117188 183.097656 172.386719 183.097656 173.894531 C 183.097656 175.402344 181.828125 176.671875 180.320312 176.671875 Z M 180.320312 176.671875 " fill-opacity="1" fill-rule="nonzero"/><path fill="#c69c6d" d="M 163.34375 205.066406 L 150.019531 205.066406 C 138.992188 205.066406 130.03125 195.390625 130.03125 183.414062 L 130.03125 132.886719 C 130.03125 131.378906 131.300781 130.109375 132.808594 130.109375 C 134.3125 130.109375 135.582031 131.378906 135.582031 132.886719 L 135.582031 183.414062 C 135.582031 192.296875 142.085938 199.515625 150.019531 199.515625 L 163.34375 199.515625 C 171.355469 199.515625 177.78125 192.296875 177.78125 183.414062 L 177.78125 132.886719 C 177.78125 131.378906 179.050781 130.109375 180.558594 130.109375 C 182.066406 130.109375 183.335938 131.378906 183.335938 132.886719 L 183.335938 183.414062 C 183.414062 195.390625 174.449219 205.066406 163.34375 205.066406 Z M 163.34375 205.066406 " fill-opacity="1" fill-rule="nonzero"/><path fill="#c69c6d" d="M 160.570312 228.390625 C 159.0625 228.390625 157.792969 227.121094 157.792969 225.613281 L 157.792969 203.800781 C 157.792969 202.292969 159.0625 201.023438 160.570312 201.023438 C 162.078125 201.023438 163.34375 202.292969 163.34375 203.800781 L 163.34375 225.613281 C 163.34375 227.121094 162.078125 228.390625 160.570312 228.390625 Z M 160.570312 228.390625 " fill-opacity="1" fill-rule="nonzero"/><path fill="#c69c6d" d="M 152.558594 228.390625 C 151.050781 228.390625 149.78125 227.121094 149.78125 225.613281 L 149.78125 203.800781 C 149.78125 202.292969 151.050781 201.023438 152.558594 201.023438 C 154.066406 201.023438 155.335938 202.292969 155.335938 203.800781 L 155.335938 225.613281 C 155.335938 227.121094 154.144531 228.390625 152.558594 228.390625 Z M 152.558594 228.390625 " fill-opacity="1" fill-rule="nonzero"/><path fill="#c69c6d" d="M 165.011719 174.371094 C 163.503906 174.371094 162.234375 173.101562 162.234375 171.59375 L 162.234375 133.125 C 162.234375 131.617188 163.503906 130.347656 165.011719 130.347656 C 166.519531 130.347656 167.789062 131.617188 167.789062 133.125 L 167.789062 171.59375 C 167.789062 173.101562 166.597656 174.371094 165.011719 174.371094 Z M 165.011719 174.371094 " fill-opacity="1" fill-rule="nonzero"/><path fill="#c69c6d" d="M 148.355469 174.371094 C 146.847656 174.371094 145.578125 173.101562 145.578125 171.59375 L 145.578125 133.125 C 145.578125 131.617188 146.847656 130.347656 148.355469 130.347656 C 149.859375 130.347656 151.128906 131.617188 151.128906 133.125 L 151.128906 171.59375 C 151.128906 173.101562 149.859375 174.371094 148.355469 174.371094 Z M 148.355469 174.371094 " fill-opacity="1" fill-rule="nonzero"/><path fill="#c69c6d" d="M 164.933594 280.265625 C 163.425781 280.265625 162.234375 279.074219 162.15625 277.566406 L 160.886719 230.371094 L 152.242188 230.371094 L 151.128906 272.015625 C 151.050781 273.523438 149.78125 274.792969 148.273438 274.710938 C 146.765625 274.632812 145.5 273.363281 145.578125 271.855469 L 146.765625 227.515625 C 146.847656 226.007812 148.035156 224.820312 149.542969 224.820312 L 163.582031 224.820312 C 165.089844 224.820312 166.28125 226.007812 166.359375 227.515625 L 167.707031 277.410156 C 167.789062 278.996094 166.597656 280.265625 164.933594 280.265625 C 165.011719 280.265625 165.011719 280.265625 164.933594 280.265625 Z M 164.933594 280.265625 " fill-opacity="1" fill-rule="nonzero"/><g clip-path="url(#id1)"><path fill="#c69c6d" d="M 187.617188 283.992188 C 134.472656 283.992188 91.242188 240.761719 91.242188 187.617188 C 91.242188 134.472656 134.472656 91.242188 187.617188 91.242188 C 240.761719 91.242188 283.992188 134.472656 283.992188 187.617188 C 283.992188 240.761719 240.761719 283.992188 187.617188 283.992188 Z M 187.617188 96.796875 C 137.566406 96.796875 96.796875 137.566406 96.796875 187.617188 C 96.796875 237.667969 137.566406 278.441406 187.617188 278.441406 C 237.667969 278.441406 278.441406 237.667969 278.441406 187.617188 C 278.441406 137.566406 237.667969 96.796875 187.617188 96.796875 Z M 187.617188 96.796875 " fill-opacity="1" fill-rule="nonzero"/></g><path fill="#c69c6d" d="M 222.675781 228.390625 C 221.171875 228.390625 219.902344 227.121094 219.902344 225.613281 L 219.902344 203.800781 C 219.902344 202.292969 221.171875 201.023438 222.675781 201.023438 C 224.183594 201.023438 225.453125 202.292969 225.453125 203.800781 L 225.453125 225.613281 C 225.453125 227.121094 224.183594 228.390625 222.675781 228.390625 Z M 222.675781 228.390625 " fill-opacity="1" fill-rule="nonzero"/><path fill="#c69c6d" d="M 214.667969 228.390625 C 213.160156 228.390625 211.890625 227.121094 211.890625 225.613281 L 211.890625 203.800781 C 211.890625 202.292969 213.160156 201.023438 214.667969 201.023438 C 216.171875 201.023438 217.441406 202.292969 217.441406 203.800781 L 217.441406 225.613281 C 217.441406 227.121094 216.253906 228.390625 214.667969 228.390625 Z M 214.667969 228.390625 " fill-opacity="1" fill-rule="nonzero"/><path fill="#c69c6d" d="M 210.304688 279.789062 C 210.304688 279.789062 210.222656 279.789062 210.304688 279.789062 C 208.71875 279.710938 207.449219 278.441406 207.527344 276.933594 L 208.875 227.515625 C 208.953125 226.007812 210.144531 224.820312 211.652344 224.820312 L 225.691406 224.820312 C 227.199219 224.820312 228.390625 226.007812 228.46875 227.515625 L 229.65625 271.222656 C 229.738281 272.730469 228.46875 274 226.960938 274.078125 C 226.960938 274.078125 226.882812 274.078125 226.882812 274.078125 C 225.375 274.078125 224.183594 272.886719 224.105469 271.378906 L 222.996094 230.371094 L 214.347656 230.371094 L 213.078125 277.09375 C 213 278.597656 211.8125 279.789062 210.304688 279.789062 Z M 210.304688 279.789062 " fill-opacity="1" fill-rule="nonzero"/><g fill="#ffffff" fill-opacity="0.4"><g transform="translate(63.471522, 325.371425)"><g><path d="M 18.648438 -21.375 L 18.648438 -26.308594 L 2.300781 -26.308594 L 2.300781 0 L 7.234375 0 L 7.234375 -9.308594 L 14.46875 -9.308594 L 14.46875 -14.242188 L 7.234375 -14.242188 L 7.234375 -21.375 Z M 18.648438 -21.375 "/></g></g></g><g fill="#ffffff" fill-opacity="0.4"><g transform="translate(83.3985, 325.371425)"><g><path d="M 14.601562 -26.640625 C 7.167969 -26.640625 1.152344 -20.621094 1.152344 -13.1875 C 1.152344 -5.753906 7.167969 0.261719 14.601562 0.261719 C 22.035156 0.261719 28.054688 -5.753906 28.054688 -13.1875 C 28.054688 -20.621094 22.035156 -26.640625 14.601562 -26.640625 Z M 14.601562 -21.605469 C 19.273438 -21.605469 22.5625 -17.824219 22.5625 -13.1875 C 22.5625 -8.550781 19.273438 -4.769531 14.601562 -4.769531 C 9.964844 -4.769531 6.675781 -8.550781 6.675781 -13.1875 C 6.675781 -17.824219 9.964844 -21.605469 14.601562 -21.605469 Z M 14.601562 -21.605469 "/></g></g></g><g fill="#ffffff" fill-opacity="0.4"><g transform="translate(112.59843, 325.371425)"><g><path d="M 14.601562 -26.640625 C 7.167969 -26.640625 1.152344 -20.621094 1.152344 -13.1875 C 1.152344 -5.753906 7.167969 0.261719 14.601562 0.261719 C 22.035156 0.261719 28.054688 -5.753906 28.054688 -13.1875 C 28.054688 -20.621094 22.035156 -26.640625 14.601562 -26.640625 Z M 14.601562 -21.605469 C 19.273438 -21.605469 22.5625 -17.824219 22.5625 -13.1875 C 22.5625 -8.550781 19.273438 -4.769531 14.601562 -4.769531 C 9.964844 -4.769531 6.675781 -8.550781 6.675781 -13.1875 C 6.675781 -17.824219 9.964844 -21.605469 14.601562 -21.605469 Z M 14.601562 -21.605469 "/></g></g></g><g fill="#ffffff" fill-opacity="0.4"><g transform="translate(141.798361, 325.371425)"><g><path d="M 10.917969 -26.308594 L 2.300781 -26.308594 L 2.300781 0 L 10.917969 0 C 17.859375 0 22.792969 -5.886719 22.792969 -13.15625 C 22.792969 -20.421875 17.660156 -26.308594 10.917969 -26.308594 Z M 10.917969 -21.410156 C 14.832031 -21.410156 17.890625 -17.792969 17.890625 -13.15625 C 17.890625 -10.785156 17.167969 -8.648438 15.785156 -7.105469 C 14.898438 -6.085938 13.351562 -4.898438 10.917969 -4.898438 L 7.203125 -4.898438 L 7.203125 -21.410156 Z M 10.917969 -21.410156 "/></g></g></g><g fill="#ffffff" fill-opacity="0.4"><g transform="translate(166.887939, 325.371425)"><g/></g></g><g fill="#ffffff" fill-opacity="0.4"><g transform="translate(176.75278, 325.371425)"><g><path d="M 21.574219 -7.332031 C 20.191406 -5.722656 18.152344 -4.734375 15.753906 -4.734375 C 11.117188 -4.734375 7.828125 -8.519531 7.828125 -13.15625 C 7.828125 -17.792969 11.117188 -21.574219 15.753906 -21.574219 C 18.152344 -21.574219 20.191406 -20.585938 21.574219 -18.976562 L 25.289062 -22.660156 C 22.855469 -25.09375 19.46875 -26.605469 15.753906 -26.605469 C 8.320312 -26.605469 2.300781 -20.585938 2.300781 -13.15625 C 2.300781 -5.722656 8.320312 0.296875 15.753906 0.296875 C 19.46875 0.296875 22.855469 -1.21875 25.289062 -3.652344 Z M 21.574219 -7.332031 "/></g></g></g><g fill="#ffffff" fill-opacity="0.4"><g transform="translate(204.341451, 325.371425)"><g><path d="M 14.601562 -26.640625 C 7.167969 -26.640625 1.152344 -20.621094 1.152344 -13.1875 C 1.152344 -5.753906 7.167969 0.261719 14.601562 0.261719 C 22.035156 0.261719 28.054688 -5.753906 28.054688 -13.1875 C 28.054688 -20.621094 22.035156 -26.640625 14.601562 -26.640625 Z M 14.601562 -21.605469 C 19.273438 -21.605469 22.5625 -17.824219 22.5625 -13.1875 C 22.5625 -8.550781 19.273438 -4.769531 14.601562 -4.769531 C 9.964844 -4.769531 6.675781 -8.550781 6.675781 -13.1875 C 6.675781 -17.824219 9.964844 -21.605469 14.601562 -21.605469 Z M 14.601562 -21.605469 "/></g></g></g><g fill="#ffffff" fill-opacity="0.4"><g transform="translate(233.541381, 325.371425)"><g><path d="M 17.429688 -26.308594 L 17.429688 -9.109375 C 17.429688 -6.445312 15.292969 -4.308594 12.660156 -4.308594 L 12.003906 -4.308594 C 9.371094 -4.308594 7.234375 -6.445312 7.234375 -9.109375 L 7.234375 -26.308594 L 2.300781 -26.308594 L 2.300781 -9.109375 C 2.300781 -3.78125 6.675781 0.59375 12.003906 0.59375 L 12.660156 0.59375 C 17.988281 0.59375 22.332031 -3.78125 22.332031 -9.109375 L 22.332031 -26.308594 Z M 17.429688 -26.308594 "/></g></g></g><g fill="#ffffff" fill-opacity="0.4"><g transform="translate(258.170599, 325.371425)"><g><path d="M 22.855469 -16.445312 C 22.855469 -21.902344 20.355469 -26.308594 13.648438 -26.308594 L 2.300781 -26.308594 L 2.300781 0 L 7.234375 0 L 7.234375 -6.542969 L 13.648438 -6.542969 C 14.242188 -6.542969 14.800781 -6.578125 15.324219 -6.644531 L 17.695312 0 L 22.855469 0 L 19.863281 -8.417969 C 22.035156 -10.226562 22.855469 -13.15625 22.855469 -16.445312 Z M 7.234375 -11.476562 L 7.234375 -21.410156 L 13.648438 -21.410156 C 16.082031 -21.410156 16.738281 -20.585938 16.96875 -20.324219 C 17.59375 -19.535156 17.921875 -18.152344 17.921875 -16.445312 C 17.921875 -14.636719 17.59375 -13.253906 17.003906 -12.53125 C 16.445312 -11.804688 15.324219 -11.476562 13.648438 -11.476562 Z M 7.234375 -11.476562 "/></g></g></g><g fill="#ffffff" fill-opacity="0.4"><g transform="translate(283.325947, 325.371425)"><g><path d="M 22.066406 -26.308594 L 2.300781 -26.308594 L 2.300781 -21.410156 L 9.734375 -21.410156 L 9.734375 0 L 14.636719 0 L 14.636719 -21.410156 L 22.066406 -21.410156 Z M 22.066406 -26.308594 "/></g></g></g><g fill="#c69c6d" fill-opacity="1"><g transform="translate(65.390625, 324.634755)"><g><path d="M 18.648438 -21.375 L 18.648438 -26.308594 L 2.300781 -26.308594 L 2.300781 0 L 7.234375 0 L 7.234375 -9.308594 L 14.46875 -9.308594 L 14.46875 -14.242188 L 7.234375 -14.242188 L 7.234375 -21.375 Z M 18.648438 -21.375 "/></g></g></g><g fill="#c69c6d" fill-opacity="1"><g transform="translate(85.317603, 324.634755)"><g><path d="M 14.601562 -26.640625 C 7.167969 -26.640625 1.152344 -20.621094 1.152344 -13.1875 C 1.152344 -5.753906 7.167969 0.261719 14.601562 0.261719 C 22.035156 0.261719 28.054688 -5.753906 28.054688 -13.1875 C 28.054688 -20.621094 22.035156 -26.640625 14.601562 -26.640625 Z M 14.601562 -21.605469 C 19.273438 -21.605469 22.5625 -17.824219 22.5625 -13.1875 C 22.5625 -8.550781 19.273438 -4.769531 14.601562 -4.769531 C 9.964844 -4.769531 6.675781 -8.550781 6.675781 -13.1875 C 6.675781 -17.824219 9.964844 -21.605469 14.601562 -21.605469 Z M 14.601562 -21.605469 "/></g></g></g><g fill="#c69c6d" fill-opacity="1"><g transform="translate(114.517533, 324.634755)"><g><path d="M 14.601562 -26.640625 C 7.167969 -26.640625 1.152344 -20.621094 1.152344 -13.1875 C 1.152344 -5.753906 7.167969 0.261719 14.601562 0.261719 C 22.035156 0.261719 28.054688 -5.753906 28.054688 -13.1875 C 28.054688 -20.621094 22.035156 -26.640625 14.601562 -26.640625 Z M 14.601562 -21.605469 C 19.273438 -21.605469 22.5625 -17.824219 22.5625 -13.1875 C 22.5625 -8.550781 19.273438 -4.769531 14.601562 -4.769531 C 9.964844 -4.769531 6.675781 -8.550781 6.675781 -13.1875 C 6.675781 -17.824219 9.964844 -21.605469 14.601562 -21.605469 Z M 14.601562 -21.605469 "/></g></g></g><g fill="#c69c6d" fill-opacity="1"><g transform="translate(143.717463, 324.634755)"><g><path d="M 10.917969 -26.308594 L 2.300781 -26.308594 L 2.300781 0 L 10.917969 0 C 17.859375 0 22.792969 -5.886719 22.792969 -13.15625 C 22.792969 -20.421875 17.660156 -26.308594 10.917969 -26.308594 Z M 10.917969 -21.410156 C 14.832031 -21.410156 17.890625 -17.792969 17.890625 -13.15625 C 17.890625 -10.785156 17.167969 -8.648438 15.785156 -7.105469 C 14.898438 -6.085938 13.351562 -4.898438 10.917969 -4.898438 L 7.203125 -4.898438 L 7.203125 -21.410156 Z M 10.917969 -21.410156 "/></g></g></g><g fill="#c69c6d" fill-opacity="1"><g transform="translate(168.807042, 324.634755)"><g/></g></g><g fill="#c69c6d" fill-opacity="1"><g transform="translate(178.671883, 324.634755)"><g><path d="M 21.574219 -7.332031 C 20.191406 -5.722656 18.152344 -4.734375 15.753906 -4.734375 C 11.117188 -4.734375 7.828125 -8.519531 7.828125 -13.15625 C 7.828125 -17.792969 11.117188 -21.574219 15.753906 -21.574219 C 18.152344 -21.574219 20.191406 -20.585938 21.574219 -18.976562 L 25.289062 -22.660156 C 22.855469 -25.09375 19.46875 -26.605469 15.753906 -26.605469 C 8.320312 -26.605469 2.300781 -20.585938 2.300781 -13.15625 C 2.300781 -5.722656 8.320312 0.296875 15.753906 0.296875 C 19.46875 0.296875 22.855469 -1.21875 25.289062 -3.652344 Z M 21.574219 -7.332031 "/></g></g></g><g fill="#c69c6d" fill-opacity="1"><g transform="translate(206.260554, 324.634755)"><g><path d="M 14.601562 -26.640625 C 7.167969 -26.640625 1.152344 -20.621094 1.152344 -13.1875 C 1.152344 -5.753906 7.167969 0.261719 14.601562 0.261719 C 22.035156 0.261719 28.054688 -5.753906 28.054688 -13.1875 C 28.054688 -20.621094 22.035156 -26.640625 14.601562 -26.640625 Z M 14.601562 -21.605469 C 19.273438 -21.605469 22.5625 -17.824219 22.5625 -13.1875 C 22.5625 -8.550781 19.273438 -4.769531 14.601562 -4.769531 C 9.964844 -4.769531 6.675781 -8.550781 6.675781 -13.1875 C 6.675781 -17.824219 9.964844 -21.605469 14.601562 -21.605469 Z M 14.601562 -21.605469 "/></g></g></g><g fill="#c69c6d" fill-opacity="1"><g transform="translate(235.460484, 324.634755)"><g><path d="M 17.429688 -26.308594 L 17.429688 -9.109375 C 17.429688 -6.445312 15.292969 -4.308594 12.660156 -4.308594 L 12.003906 -4.308594 C 9.371094 -4.308594 7.234375 -6.445312 7.234375 -9.109375 L 7.234375 -26.308594 L 2.300781 -26.308594 L 2.300781 -9.109375 C 2.300781 -3.78125 6.675781 0.59375 12.003906 0.59375 L 12.660156 0.59375 C 17.988281 0.59375 22.332031 -3.78125 22.332031 -9.109375 L 22.332031 -26.308594 Z M 17.429688 -26.308594 "/></g></g></g><g fill="#c69c6d" fill-opacity="1"><g transform="translate(260.089702, 324.634755)"><g><path d="M 22.855469 -16.445312 C 22.855469 -21.902344 20.355469 -26.308594 13.648438 -26.308594 L 2.300781 -26.308594 L 2.300781 0 L 7.234375 0 L 7.234375 -6.542969 L 13.648438 -6.542969 C 14.242188 -6.542969 14.800781 -6.578125 15.324219 -6.644531 L 17.695312 0 L 22.855469 0 L 19.863281 -8.417969 C 22.035156 -10.226562 22.855469 -13.15625 22.855469 -16.445312 Z M 7.234375 -11.476562 L 7.234375 -21.410156 L 13.648438 -21.410156 C 16.082031 -21.410156 16.738281 -20.585938 16.96875 -20.324219 C 17.59375 -19.535156 17.921875 -18.152344 17.921875 -16.445312 C 17.921875 -14.636719 17.59375 -13.253906 17.003906 -12.53125 C 16.445312 -11.804688 15.324219 -11.476562 13.648438 -11.476562 Z M 7.234375 -11.476562 "/></g></g></g><g fill="#c69c6d" fill-opacity="1"><g transform="translate(285.24505, 324.634755)"><g><path d="M 22.066406 -26.308594 L 2.300781 -26.308594 L 2.300781 -21.410156 L 9.734375 -21.410156 L 9.734375 0 L 14.636719 0 L 14.636719 -21.410156 L 22.066406 -21.410156 Z M 22.066406 -26.308594 "/></g></g></g></svg>